<?xml version="1.0"?>
<svg xmlns="http://www.w3.org/2000/svg" xmlns:xlink="http://www.w3.org/1999/xlink" version="1.1" id="Capa_1" x="0px" y="0px" viewBox="0 0 512 512" style="enable-background:new 0 0 512 512;" xml:space="preserve" width="512px" height="512px"><g><g>
	<g>
		<path d="M451.854,139.823c-5.857-5.858-15.355-5.857-21.213-0.001l-59.849,59.846c-6.434-45.384-39.346-82.364-82.555-94.745    l79.315-79.316c5.858-5.858,5.858-15.355,0-21.213c-5.857-5.858-15.355-5.858-21.213,0l-89.87,89.871L167.355,5.152    c-5.857-5.857-15.355-5.857-21.213,0c-5.858,5.858-5.858,15.355,0,21.213l78.559,78.558    c-43.207,12.38-76.118,49.359-82.554,94.741l-59.839-59.842c-5.856-5.858-15.354-5.858-21.213-0.001    c-5.857,5.858-5.858,15.355,0,21.213l39.916,39.918h310.926l39.917-39.916C457.712,155.178,457.712,145.681,451.854,139.823z" data-original="#000000" class="active-path" data-old_color="#000000" fill="#F2DBFE"/>
	</g>
</g><g>
	<g>
		<path d="M467.94,304.532h-77.219v-73.58H271.473v237.66c29.382-3.283,55.928-16.084,76.475-35.246l74.239,74.242    c2.929,2.929,6.768,4.393,10.606,4.393s7.678-1.464,10.606-4.393c5.858-5.857,5.858-15.355,0-21.213l-75.86-75.863    c14.624-21.493,23.182-47.43,23.182-75.329v-0.671h77.219c8.284,0,15-6.715,15-15C482.94,311.249,476.224,304.532,467.94,304.532z    " data-original="#000000" class="active-path" data-old_color="#000000" fill="#F2DBFE"/>
	</g>
</g><g>
	<g>
		<path d="M122.221,304.532h-78.16c-8.284,0-15,6.717-15,15c0,8.285,6.716,15,15,15h78.16v0.671c0,27.658,8.41,53.388,22.803,74.77    l-76.421,76.421c-5.858,5.858-5.858,15.355,0,21.214c2.929,2.929,6.768,4.393,10.606,4.393s7.678-1.464,10.606-4.393    l74.693-74.694c20.614,19.413,47.35,32.39,76.964,35.698v-237.66H122.221V304.532z" data-original="#000000" class="active-path" data-old_color="#000000" fill="#F2DBFE"/>
	</g>
</g></g> </svg>
